<?xml version="1.0" encoding="UTF-8"?>
<svg version="1.1" xmlns="http://www.w3.org/2000/svg" width="512" height="512">
<path d="M0 0 C1.40266505 -0.0041807 2.80532671 -0.00966223 4.20798218 -0.01631981 C8.03463484 -0.03069675 11.86107071 -0.02655418 15.68773484 -0.019153 C19.82554502 -0.0144043 23.96330944 -0.02694618 28.10110474 -0.03717041 C36.19665877 -0.05433055 44.29213508 -0.05520421 52.38770257 -0.04995751 C58.97057481 -0.04590934 65.55342416 -0.04736703 72.13629532 -0.05270576 C73.07467435 -0.05345419 74.01305339 -0.05420261 74.97986815 -0.05497371 C76.88643678 -0.05650525 78.79300539 -0.0580436 80.69957401 -0.05958868 C98.56253583 -0.07330367 116.4254538 -0.06788309 134.28841461 -0.05640347 C150.61342238 -0.04647234 166.93831679 -0.05941145 183.26330708 -0.08333766 C200.04554404 -0.10774778 216.82772825 -0.11733181 233.60998261 -0.11068493 C243.02404777 -0.10719694 252.43802578 -0.10939701 261.85207748 -0.12693596 C269.86604224 -0.14168188 277.87985847 -0.1422622 285.89382039 -0.12486505 C289.97853785 -0.11637228 294.06299023 -0.11416302 298.14769363 -0.1295166 C301.89459745 -0.14342553 305.64101066 -0.13852192 309.38788654 -0.11927737 C311.3690424 -0.11377778 313.35022363 -0.12773693 315.33133113 -0.14263147 C331.0911552 -0.01410854 343.42612084 5.28720102 355.04446411 15.82518005 C359.01872472 19.9769196 361.77025149 24.30444037 364.35696411 29.38768005 C364.68333862 30.02761902 365.00971313 30.66755798 365.34597778 31.32688904 C370.35472724 41.89765679 370.14614681 52.93547558 370.11766052 64.37837219 C370.12068414 66.10261866 370.12457468 67.8268638 370.12925309 69.55110657 C370.13951461 74.27122683 370.13735598 78.99127097 370.1330725 83.71139741 C370.13060193 88.80898494 370.13962352 93.90655429 370.14710999 99.00413513 C370.15984966 108.98377919 370.1616516 118.96339633 370.15930972 128.94304715 C370.15752564 137.05579084 370.15927813 145.16852636 370.16353416 153.28126907 C370.16412935 154.4365505 370.16472454 155.59183192 370.16533777 156.78212187 C370.16654954 159.12918376 370.16776367 161.47624565 370.16898014 163.82330753 C370.1798528 185.82660956 370.17769445 207.82989626 370.1715953 229.83319916 C370.16642598 249.95477281 370.17768247 270.07629806 370.19669352 290.19786213 C370.21607327 310.86842808 370.2243277 331.53897112 370.22057027 352.20954621 C370.21865849 363.81060576 370.22114361 375.4116241 370.23528481 387.01267624 C370.24720127 396.88839545 370.24860044 406.76404809 370.23649464 416.63976823 C370.23060796 421.67618033 370.22950077 426.71247068 370.24149704 431.74887466 C370.25236225 436.36413626 370.24924484 440.97917452 370.23523536 445.59442569 C370.23259021 447.25920131 370.23494921 448.92399446 370.24297122 450.58875285 C370.32314918 468.47682589 366.97619042 483.85118469 354.20071411 497.13768005 C344.54230984 506.40974816 333.61953589 512.49805442 319.96813202 512.52190113 C318.78183937 512.52635897 317.59554671 512.53081682 316.3733058 512.53540975 C315.07381514 512.53522539 313.77432448 512.53504102 312.43545532 512.53485107 C311.03797189 512.53815188 309.64048941 512.54187791 308.24300814 512.54599255 C304.40286631 512.55599613 300.56274012 512.5597267 296.72258711 512.56238186 C292.58059496 512.56628983 288.43861513 512.57586786 284.29663086 512.58459473 C274.29337664 512.60434581 264.29012144 512.61442388 254.2868526 512.62332252 C249.57353318 512.62770786 244.86021489 512.63307405 240.14689636 512.63831139 C224.47405989 512.65532273 208.80122411 512.66981607 193.12837982 512.67706013 C189.06232197 512.67896995 184.99626413 512.68089029 180.9302063 512.68284607 C179.91963482 512.68332981 178.90906334 512.68381355 177.86786848 512.68431195 C161.50368868 512.69260915 145.13958206 512.71794125 128.7754342 512.75042675 C111.9662772 512.78352298 95.15715736 512.80151123 78.34796762 512.80470437 C68.91367969 512.80686715 59.47949844 512.81558176 50.04524231 512.84116554 C42.00918837 512.86290762 33.97326704 512.87090575 25.93718702 512.86119876 C21.84034899 512.85666413 17.74378436 512.85849117 13.6469841 512.87796021 C9.8887559 512.89566522 6.13099908 512.89453546 2.37276536 512.87906291 C0.38534534 512.87558643 -1.60208006 512.8916582 -3.58943033 512.90866739 C-19.36375133 512.79653779 -31.70182007 507.49756712 -43.33053589 496.95018005 C-47.30479649 492.79844051 -50.05632327 488.47091974 -52.64303589 483.38768005 C-52.9694104 482.74774109 -53.29578491 482.10780212 -53.63204956 481.44847107 C-58.64079902 470.87770332 -58.43221859 459.83988452 -58.4037323 448.39698792 C-58.40675592 446.67274144 -58.41064646 444.94849631 -58.41532487 443.22425354 C-58.42558638 438.50413328 -58.42342775 433.78408914 -58.41914427 429.0639627 C-58.41667371 423.96637517 -58.4256953 418.86880581 -58.43318176 413.77122498 C-58.44592144 403.79158092 -58.44772338 393.81196378 -58.4453815 383.83231296 C-58.44359742 375.71956927 -58.44534991 367.60683374 -58.44960594 359.49409103 C-58.45020113 358.33880961 -58.45079632 357.18352819 -58.45140954 355.99323823 C-58.45262131 353.64617635 -58.45383545 351.29911446 -58.45505192 348.95205258 C-58.46592457 326.94875055 -58.46376622 304.94546384 -58.45766708 282.94216095 C-58.45249776 262.8205873 -58.46375425 242.69906205 -58.48276529 222.57749797 C-58.50214505 201.90693203 -58.51039948 181.23638899 -58.50664204 160.5658139 C-58.50473026 148.96475435 -58.50721538 137.363736 -58.52135658 125.76268387 C-58.53327305 115.88696465 -58.53467222 106.01131201 -58.52256642 96.13559188 C-58.51667974 91.09917977 -58.51557255 86.06288942 -58.52756882 81.02648544 C-58.53843402 76.41122385 -58.53531662 71.79618559 -58.52130713 67.18093441 C-58.51866198 65.5161588 -58.52102099 63.85136565 -58.529043 62.18660726 C-58.60772199 44.63296073 -55.41849093 28.57854539 -42.95553589 15.45018005 C-30.11852527 3.52633572 -17.1807323 -0.08054281 0 0 Z M-29.67819214 35.18455505 C-35.66685202 43.07631677 -36.26610522 52.02624604 -36.27167034 61.65075397 C-36.27342338 62.33879214 -36.27517642 63.0268303 -36.27698258 63.7357181 C-36.28161353 66.02819868 -36.27918463 68.32061502 -36.27674866 70.61309814 C-36.27861809 72.27858284 -36.28091932 73.94406709 -36.28361398 75.60955065 C-36.28972194 80.17647995 -36.28959957 84.74339091 -36.2884196 89.31032336 C-36.28821535 94.23954908 -36.29373674 99.16876895 -36.29847717 104.09799194 C-36.30677863 113.75137512 -36.30953178 123.4047522 -36.31008955 133.05813865 C-36.31056492 140.90539499 -36.31262072 148.75264931 -36.31579018 156.59990501 C-36.32459513 178.85328003 -36.32920976 201.10665022 -36.3284597 223.36002699 C-36.32839977 225.15902654 -36.32839977 225.15902654 -36.32833862 226.99436951 C-36.32829774 228.19516845 -36.32825686 229.39596739 -36.32821474 230.63315418 C-36.32780825 250.09593383 -36.33737907 269.55869414 -36.35147699 289.0214682 C-36.36584181 309.01056532 -36.37274712 328.999653 -36.37188321 348.9887554 C-36.3715513 360.20918481 -36.37429616 371.42959394 -36.38506126 382.65001869 C-36.39416761 392.20264351 -36.39634037 401.75523885 -36.38955184 411.30786613 C-36.38628742 416.1800712 -36.38622721 421.05221972 -36.39490509 425.9244194 C-36.40277429 430.38854729 -36.40133434 434.8525738 -36.39262096 439.31669923 C-36.39108691 440.92768195 -36.39289853 442.53867225 -36.39848103 444.14964602 C-36.44350383 458.06907997 -36.35514719 471.03096156 -26.39303589 481.63768005 C-19.97221809 487.73506113 -13.30729048 490.50616275 -4.49381065 490.52190113 C-2.75638385 490.5285879 -2.75638385 490.5285879 -0.98385751 490.53540975 C0.92612589 490.5351332 0.92612589 490.5351332 2.87469482 490.53485107 C4.2404549 490.53815095 5.60621401 490.54187678 6.97197187 490.54599255 C10.72895233 490.55600663 14.48591681 490.55972839 18.24290872 490.56238186 C22.29351749 490.56628667 26.34411364 490.57586489 30.39471436 490.58459473 C40.17886505 490.6043541 49.96301677 490.61442466 59.74718243 490.62332252 C64.35529368 490.62770626 68.96340378 490.63307285 73.57151413 490.63831139 C88.89088769 490.6553231 104.21026055 490.66981717 119.52964211 490.67706013 C123.50479763 490.67897 127.47995314 490.68089034 131.45510864 490.68284607 C132.44310764 490.68332981 133.43110663 490.68381355 134.44904499 490.68431195 C150.45319034 490.69261187 166.45726093 490.7179484 182.46137364 490.75042675 C198.8941904 490.78350309 215.32696917 490.80150941 231.75981939 490.80470437 C240.98555282 490.80686892 250.21117723 490.81560964 259.4368782 490.84116554 C267.2940797 490.86288039 275.15114571 490.8709191 283.00837381 490.86119876 C287.01572371 490.85665633 291.02279409 490.85853678 295.03010559 490.87796021 C298.70310122 490.89560908 302.37561378 490.89458059 306.04861467 490.87906291 C307.99754007 490.87557024 309.94647063 490.89170031 311.8953253 490.90866739 C322.39519533 490.83191819 330.40207756 488.52798189 338.10305786 481.24705505 C346.43827009 472.41061626 347.97872341 463.01472639 347.98559856 451.12460613 C347.98822812 450.09254889 347.98822812 450.09254889 347.9909108 449.03964201 C347.99554175 446.74716143 347.99311285 444.45474509 347.99067688 442.16226196 C347.99254631 440.49677727 347.99484755 438.83129301 347.9975422 437.16580945 C348.00365017 432.59888016 348.00352779 428.0319692 348.00234783 423.46503675 C348.00214357 418.53581103 348.00766496 413.60659115 348.0124054 408.67736816 C348.02070685 399.02398498 348.02346 389.37060791 348.02401777 379.71722146 C348.02449314 371.86996512 348.02654894 364.0227108 348.0297184 356.17545509 C348.03852335 333.92208008 348.04313799 311.66870988 348.04238793 289.41533311 C348.04234797 288.21600008 348.04230801 287.01666706 348.04226685 285.7809906 C348.04222597 284.58019166 348.04218508 283.37939272 348.04214296 282.14220593 C348.04173647 262.67942628 348.05130729 243.21666597 348.06540521 223.75389191 C348.07977003 203.76479479 348.08667535 183.77570711 348.08581144 163.7866047 C348.08547952 152.5661753 348.08822438 141.34576617 348.09898949 130.12534142 C348.10809583 120.5727166 348.1102686 111.02012126 348.10348006 101.46749397 C348.10021564 96.5952889 348.10015543 91.72314039 348.10883331 86.8509407 C348.11670251 82.38681282 348.11526257 77.9227863 348.10654918 73.45866088 C348.10501513 71.84767816 348.10682675 70.23668786 348.11240926 68.62571409 C348.15743205 54.70628013 348.06907541 41.74439855 338.10696411 31.13768005 C331.68614631 25.04029897 325.02121871 22.26919736 316.20773888 22.25345898 C314.47031207 22.24677221 314.47031207 22.24677221 312.69778574 22.23995036 C311.42446346 22.24013472 310.15114119 22.24031908 308.8392334 22.24050903 C307.47347332 22.23720916 306.10771422 22.23348333 304.74195635 22.22936755 C300.9849759 22.21935348 297.22801142 22.21563172 293.47101951 22.21297824 C289.42041073 22.20907344 285.36981458 22.19949522 281.31921387 22.19076538 C271.53506317 22.17100601 261.75091145 22.16093545 251.96674579 22.15203759 C247.35863454 22.14765385 242.75052444 22.14228726 238.14241409 22.13704872 C222.82304053 22.12003701 207.50366768 22.10554294 192.18428612 22.09829998 C188.2091306 22.0963901 184.23397508 22.09446977 180.25881958 22.09251404 C179.27082059 22.0920303 178.28282159 22.09154656 177.26488324 22.09104816 C161.26073789 22.08274824 145.25666729 22.05741171 129.25255458 22.02493336 C112.81973783 21.99185701 96.38695905 21.9738507 79.95410883 21.97065574 C70.72837541 21.96849118 61.50275099 21.95975046 52.27705002 21.93419456 C44.41984852 21.91247972 36.56278251 21.90444101 28.70555441 21.91416135 C24.69820451 21.91870378 20.69113413 21.91682333 16.68382263 21.8973999 C13.010827 21.87975102 9.33831444 21.88077951 5.66531356 21.89629719 C3.71638816 21.89978987 1.76745759 21.8836598 -0.18139708 21.86669272 C-12.69697235 21.95817579 -21.52130518 25.63705377 -29.67819214 35.18455505 Z " fill="#000000" transform="translate(100.14303588867188,-0.3876800537109375)"/>
<path d="M0 0 C1.1257695 -0.00708481 2.251539 -0.01416962 3.41142273 -0.02146912 C5.25756668 -0.01775299 5.25756668 -0.01775299 7.14100647 -0.01396179 C8.44053757 -0.01907272 9.74006866 -0.02418365 11.07897949 -0.02944946 C14.64097684 -0.04283644 18.20286806 -0.04341849 21.76488566 -0.04088616 C24.73956168 -0.03981625 27.71421624 -0.04470032 30.68888766 -0.04949158 C37.70712328 -0.06058571 44.72530538 -0.06102471 51.74354553 -0.05497742 C58.98153575 -0.04893664 66.21933162 -0.06125139 73.45728868 -0.08254749 C79.67396913 -0.10016551 85.89058774 -0.10616454 92.10729223 -0.10290974 C95.81919073 -0.10109707 99.53095059 -0.1037314 103.24282646 -0.11762428 C107.38219184 -0.13253757 111.5211618 -0.12323079 115.66053772 -0.11161804 C116.88927612 -0.11926178 118.11801453 -0.12690552 119.38398743 -0.13478088 C120.51257675 -0.12776657 121.64116608 -0.12075226 122.80395508 -0.11352539 C123.78231292 -0.11369313 124.76067076 -0.11386087 125.7686758 -0.1140337 C129.62365765 0.42163125 132.1184882 2.32201431 135.24867249 4.50337219 C138.09722428 8.61731196 136.98145516 14.99014834 136.96644592 19.88423157 C136.96547543 22.12171354 137.00705157 24.35574271 137.05140686 26.59272766 C137.05661575 28.02110595 137.05930202 29.44949612 137.05921936 30.87788391 C137.0663092 32.17323059 137.07339905 33.46857727 137.08070374 34.80317688 C136.31423226 39.1106249 134.82881365 40.55847653 131.46546936 43.26069641 C128.45051916 44.3985124 125.66831358 44.55391454 122.46546936 44.26069641 C117.97026243 42.05395847 116.72948107 40.78871983 114.46546936 36.26069641 C114.46546936 31.64069641 114.46546936 27.02069641 114.46546936 22.26069641 C100.60546936 22.26069641 86.74546936 22.26069641 72.46546936 22.26069641 C72.46546936 57.24069641 72.46546936 92.22069641 72.46546936 128.26069641 C77.08546936 128.26069641 81.70546936 128.26069641 86.46546936 128.26069641 C90.73990028 130.25543084 92.73436673 131.93689212 94.46546936 136.26069641 C94.61781311 138.44429016 94.61781311 138.44429016 94.40296936 140.69819641 C94.3501178 141.43940735 94.29726624 142.18061829 94.24281311 142.94429016 C93.02047874 146.58672372 91.5652697 147.93578695 88.46546936 150.26069641 C84.50172546 151.01942534 80.58495022 150.96120941 76.55921936 150.92475891 C75.40176208 150.92954254 74.24430481 150.93432617 73.05177307 150.93925476 C70.60746398 150.94265341 68.16310941 150.93345366 65.71888733 150.91255188 C61.97843528 150.88578918 58.24098437 150.91230446 54.50062561 150.94429016 C52.12431691 150.94098606 49.74801007 150.93457983 47.37171936 150.92475891 C46.25390076 150.93488007 45.13608215 150.94500122 43.98439026 150.95542908 C36.22605198 150.83837035 36.22605198 150.83837035 32.28382874 147.8441925 C29.36327213 143.69471211 28.76022082 140.29404557 29.46546936 135.26069641 C31.82479681 131.38465846 33.33538124 130.32574047 37.46546936 128.26069641 C41.75546936 128.26069641 46.04546936 128.26069641 50.46546936 128.26069641 C50.46546936 93.28069641 50.46546936 58.30069641 50.46546936 22.26069641 C36.60546936 22.26069641 22.74546936 22.26069641 8.46546936 22.26069641 C8.46546936 27.54069641 8.46546936 32.82069641 8.46546936 38.26069641 C2.61839489 44.10777088 2.61839489 44.10777088 -3.31578064 44.46382141 C-6.9031829 44.13539726 -8.90962728 42.62951164 -11.53453064 40.26069641 C-14.94428593 35.02110246 -13.90345551 28.39399725 -13.90953064 22.38569641 C-13.93402283 21.11854797 -13.95851501 19.85139954 -13.98374939 18.54585266 C-14.02087032 6.77851917 -14.02087032 6.77851917 -9.53453064 2.26069641 C-6.30341605 0.23573497 -3.78100316 0.00793667 0 0 Z " fill="#000000" transform="translate(119.53453063964844,169.7393035888672)"/>
<path d="M0 0 C1.49032252 -0.00967334 1.49032252 -0.00967334 3.01075256 -0.0195421 C4.10003779 -0.01644489 5.18932302 -0.01334769 6.3116169 -0.01015663 C7.47053007 -0.01468774 8.62944325 -0.01921886 9.823475 -0.02388728 C13.04094374 -0.03436861 16.25827217 -0.03585522 19.47575259 -0.03349853 C22.94551178 -0.03309071 26.41523752 -0.04412615 29.88498116 -0.05361366 C36.6830445 -0.07023199 43.48107316 -0.07572358 50.27915512 -0.07683842 C55.80437613 -0.07778847 61.32958569 -0.08189661 66.85480309 -0.08823967 C82.51664039 -0.10585411 98.17845028 -0.11507819 113.84029756 -0.11357872 C114.68476636 -0.11349881 115.52923515 -0.1134189 116.3992939 -0.11333656 C117.24479263 -0.1132548 118.09029135 -0.11317304 118.96141125 -0.1130888 C132.66618687 -0.11227577 146.37085261 -0.13141714 160.07559644 -0.1596133 C174.14441428 -0.18833033 188.21317851 -0.20215425 202.28202641 -0.20042574 C210.18188944 -0.19976145 218.08163727 -0.20527105 225.98147392 -0.22678185 C232.70720062 -0.24497812 239.43275991 -0.24935384 246.15850054 -0.235763 C249.59019042 -0.22922546 253.02155899 -0.22914392 256.45321846 -0.2464695 C260.17339712 -0.26184046 263.89272684 -0.25266654 267.61288643 -0.23720741 C268.69771022 -0.24749454 269.78253401 -0.25778167 270.90023124 -0.26838052 C276.93895956 -0.21277002 280.50017533 0.20389135 285.08923531 4.25726891 C287.09466496 7.12622635 287.35563796 9.24428109 287.02673531 12.69476891 C286.97388374 13.43597984 286.92103218 14.17719078 286.86657906 14.94086266 C285.65029961 18.56525316 284.16087577 19.93684904 281.08923531 22.25726891 C277.26240953 23.01353586 273.47822648 22.93153881 269.5880146 22.89218712 C268.41120723 22.89998707 267.23439985 22.90778702 266.02193165 22.91582334 C262.75891059 22.93231804 259.49681928 22.92638052 256.23382139 22.91089225 C252.71362129 22.89958423 249.19354735 22.91703864 245.67337227 22.93079185 C238.77877751 22.95303485 231.88445478 22.94821848 224.98984933 22.93372865 C219.38691807 22.92244053 213.7840631 22.92090364 208.18112373 22.92634773 C207.38394076 22.9271139 206.58675779 22.92788006 205.76541775 22.92866945 C204.14599806 22.93026806 202.52657838 22.93188912 200.90715873 22.9335324 C185.71883822 22.947793 170.53066855 22.93139234 155.34237278 22.90453057 C142.30772276 22.88219147 129.27329537 22.88607151 116.23864937 22.90912437 C101.10500134 22.93587693 85.97148556 22.94641968 70.83781719 22.93106306 C69.22432711 22.9294703 67.610837 22.92789844 65.99734688 22.92634773 C65.20346162 22.92557635 64.40957636 22.92480498 63.59163398 22.92401022 C57.9948854 22.91969158 52.39822065 22.9269833 46.80148506 22.9387455 C39.98164189 22.95276303 33.1620865 22.94898656 26.34227633 22.92234178 C22.86205312 22.90919318 19.38230983 22.90406819 15.90209007 22.92058754 C12.1310625 22.93419573 8.3613962 22.91718115 4.59045601 22.89218712 C3.48783771 22.90334073 2.3852194 22.91449434 1.24918842 22.92598593 C-6.15450521 22.8304154 -6.15450521 22.8304154 -10.07661247 19.85796738 C-12.77914214 16.02597094 -13.33536186 12.89517638 -12.91076469 8.25726891 C-9.9087238 2.14200042 -6.69604627 0.01099562 0 0 Z " fill="#000000" transform="translate(118.91076469421387,425.74273109436035)"/>
<path d="M0 0 C1.49032252 -0.00967334 1.49032252 -0.00967334 3.01075256 -0.0195421 C4.10003779 -0.01644489 5.18932302 -0.01334769 6.3116169 -0.01015663 C7.47053007 -0.01468774 8.62944325 -0.01921886 9.823475 -0.02388728 C13.04094374 -0.03436861 16.25827217 -0.03585522 19.47575259 -0.03349853 C22.94551178 -0.03309071 26.41523752 -0.04412615 29.88498116 -0.05361366 C36.6830445 -0.07023199 43.48107316 -0.07572358 50.27915512 -0.07683842 C55.80437613 -0.07778847 61.32958569 -0.08189661 66.85480309 -0.08823967 C82.51664039 -0.10585411 98.17845028 -0.11507819 113.84029756 -0.11357872 C114.68476636 -0.11349881 115.52923515 -0.1134189 116.3992939 -0.11333656 C117.24479263 -0.1132548 118.09029135 -0.11317304 118.96141125 -0.1130888 C132.66618687 -0.11227577 146.37085261 -0.13141714 160.07559644 -0.1596133 C174.14441428 -0.18833033 188.21317851 -0.20215425 202.28202641 -0.20042574 C210.18188944 -0.19976145 218.08163727 -0.20527105 225.98147392 -0.22678185 C232.70720062 -0.24497812 239.43275991 -0.24935384 246.15850054 -0.235763 C249.59019042 -0.22922546 253.02155899 -0.22914392 256.45321846 -0.2464695 C260.17339712 -0.26184046 263.89272684 -0.25266654 267.61288643 -0.23720741 C268.69771022 -0.24749454 269.78253401 -0.25778167 270.90023124 -0.26838052 C276.93895956 -0.21277002 280.50017533 0.20389135 285.08923531 4.25726891 C287.09466496 7.12622635 287.35563796 9.24428109 287.02673531 12.69476891 C286.97388374 13.43597984 286.92103218 14.17719078 286.86657906 14.94086266 C285.65029961 18.56525316 284.16087577 19.93684904 281.08923531 22.25726891 C277.26240953 23.01353586 273.47822648 22.93153881 269.5880146 22.89218712 C268.41120723 22.89998707 267.23439985 22.90778702 266.02193165 22.91582334 C262.75891059 22.93231804 259.49681928 22.92638052 256.23382139 22.91089225 C252.71362129 22.89958423 249.19354735 22.91703864 245.67337227 22.93079185 C238.77877751 22.95303485 231.88445478 22.94821848 224.98984933 22.93372865 C219.38691807 22.92244053 213.7840631 22.92090364 208.18112373 22.92634773 C207.38394076 22.9271139 206.58675779 22.92788006 205.76541775 22.92866945 C204.14599806 22.93026806 202.52657838 22.93188912 200.90715873 22.9335324 C185.71883822 22.947793 170.53066855 22.93139234 155.34237278 22.90453057 C142.30772276 22.88219147 129.27329537 22.88607151 116.23864937 22.90912437 C101.10500134 22.93587693 85.97148556 22.94641968 70.83781719 22.93106306 C69.22432711 22.9294703 67.610837 22.92789844 65.99734688 22.92634773 C65.20346162 22.92557635 64.40957636 22.92480498 63.59163398 22.92401022 C57.9948854 22.91969158 52.39822065 22.9269833 46.80148506 22.9387455 C39.98164189 22.95276303 33.1620865 22.94898656 26.34227633 22.92234178 C22.86205312 22.90919318 19.38230983 22.90406819 15.90209007 22.92058754 C12.1310625 22.93419573 8.3613962 22.91718115 4.59045601 22.89218712 C3.48783771 22.90334073 2.3852194 22.91449434 1.24918842 22.92598593 C-6.15450521 22.8304154 -6.15450521 22.8304154 -10.07661247 19.85796738 C-12.77914214 16.02597094 -13.33536186 12.89517638 -12.91076469 8.25726891 C-9.9087238 2.14200042 -6.69604627 0.01099562 0 0 Z " fill="#000000" transform="translate(118.91076469421387,361.74273109436035)"/>
<path d="M0 0 C1.33241226 -0.01007584 1.33241226 -0.01007584 2.69174194 -0.02035522 C5.62804763 -0.03935224 8.56412496 -0.04326028 11.50048828 -0.04541016 C13.54306126 -0.05183686 15.58563331 -0.05856513 17.62820435 -0.06558228 C21.91036107 -0.07755928 26.19243709 -0.08126266 30.47460938 -0.08007812 C35.95806313 -0.07987491 41.44099879 -0.10717841 46.92432976 -0.14162254 C51.14342621 -0.16387476 55.36239765 -0.16791618 59.58154678 -0.16685867 C61.60293488 -0.1692171 63.6243263 -0.17805423 65.64565659 -0.19352341 C68.47507621 -0.21314933 71.30337429 -0.20735865 74.1328125 -0.1953125 C75.38143066 -0.21217102 75.38143066 -0.21217102 76.65527344 -0.22937012 C81.96490611 -0.17201223 84.97255206 0.78265349 89.19580078 4.29052734 C91.20123044 7.15948479 91.46220343 9.27753953 91.13330078 12.72802734 C91.08044922 13.46923828 91.02759766 14.21044922 90.97314453 14.97412109 C89.78891218 18.50301449 88.1157214 19.98396752 85.19580078 22.29052734 C82.09548501 23.02176989 79.06912969 22.97434814 75.89501953 22.9375 C74.96597809 22.9462616 74.03693665 22.95502319 73.07974243 22.96405029 C70.01378449 22.98602747 66.94927296 22.97149718 63.88330078 22.95458984 C61.75007857 22.95795845 59.61685822 22.96281144 57.48364258 22.96908569 C53.01478791 22.97645477 48.54643323 22.96575001 44.07763672 22.94238281 C38.35066429 22.91389547 32.62486341 22.9302992 26.89793396 22.96024513 C22.49352193 22.97831689 18.08938745 22.97256053 13.68496704 22.95960617 C11.5734544 22.95627185 9.46191652 22.96036014 7.35043335 22.97200394 C4.3984711 22.98471026 1.44840324 22.96533801 -1.50341797 22.9375 C-2.81117691 22.95268173 -2.81117691 22.95268173 -4.14535522 22.96817017 C-8.54540231 22.8913355 -10.27051117 22.7134947 -13.83251953 19.89047241 C-16.70809844 16.09860538 -17.234043 12.98574405 -16.80419922 8.29052734 C-12.88999093 0.31714009 -8.29174456 -0.00898477 0 0 Z " fill="#000000" transform="translate(314.80419921875,297.70947265625)"/>
<path d="M0 0 C1.33241226 -0.01007584 1.33241226 -0.01007584 2.69174194 -0.02035522 C5.62804763 -0.03935224 8.56412496 -0.04326028 11.50048828 -0.04541016 C13.54306126 -0.05183686 15.58563331 -0.05856513 17.62820435 -0.06558228 C21.91036107 -0.07755928 26.19243709 -0.08126266 30.47460938 -0.08007812 C35.95806313 -0.07987491 41.44099879 -0.10717841 46.92432976 -0.14162254 C51.14342621 -0.16387476 55.36239765 -0.16791618 59.58154678 -0.16685867 C61.60293488 -0.1692171 63.6243263 -0.17805423 65.64565659 -0.19352341 C68.47507621 -0.21314933 71.30337429 -0.20735865 74.1328125 -0.1953125 C75.38143066 -0.21217102 75.38143066 -0.21217102 76.65527344 -0.22937012 C81.96490611 -0.17201223 84.97255206 0.78265349 89.19580078 4.29052734 C91.20123044 7.15948479 91.46220343 9.27753953 91.13330078 12.72802734 C91.08044922 13.46923828 91.02759766 14.21044922 90.97314453 14.97412109 C89.78891218 18.50301449 88.1157214 19.98396752 85.19580078 22.29052734 C82.09548501 23.02176989 79.06912969 22.97434814 75.89501953 22.9375 C74.96597809 22.9462616 74.03693665 22.95502319 73.07974243 22.96405029 C70.01378449 22.98602747 66.94927296 22.97149718 63.88330078 22.95458984 C61.75007857 22.95795845 59.61685822 22.96281144 57.48364258 22.96908569 C53.01478791 22.97645477 48.54643323 22.96575001 44.07763672 22.94238281 C38.35066429 22.91389547 32.62486341 22.9302992 26.89793396 22.96024513 C22.49352193 22.97831689 18.08938745 22.97256053 13.68496704 22.95960617 C11.5734544 22.95627185 9.46191652 22.96036014 7.35043335 22.97200394 C4.3984711 22.98471026 1.44840324 22.96533801 -1.50341797 22.9375 C-2.81117691 22.95268173 -2.81117691 22.95268173 -4.14535522 22.96817017 C-8.54540231 22.8913355 -10.27051117 22.7134947 -13.83251953 19.89047241 C-16.70809844 16.09860538 -17.234043 12.98574405 -16.80419922 8.29052734 C-12.88999093 0.31714009 -8.29174456 -0.00898477 0 0 Z " fill="#000000" transform="translate(314.80419921875,233.70947265625)"/>
<path d="M0 0 C1.33241226 -0.01007584 1.33241226 -0.01007584 2.69174194 -0.02035522 C5.62804763 -0.03935224 8.56412496 -0.04326028 11.50048828 -0.04541016 C13.54306126 -0.05183686 15.58563331 -0.05856513 17.62820435 -0.06558228 C21.91036107 -0.07755928 26.19243709 -0.08126266 30.47460938 -0.08007812 C35.95806313 -0.07987491 41.44099879 -0.10717841 46.92432976 -0.14162254 C51.14342621 -0.16387476 55.36239765 -0.16791618 59.58154678 -0.16685867 C61.60293488 -0.1692171 63.6243263 -0.17805423 65.64565659 -0.19352341 C68.47507621 -0.21314933 71.30337429 -0.20735865 74.1328125 -0.1953125 C75.38143066 -0.21217102 75.38143066 -0.21217102 76.65527344 -0.22937012 C81.96490611 -0.17201223 84.97255206 0.78265349 89.19580078 4.29052734 C91.20123044 7.15948479 91.46220343 9.27753953 91.13330078 12.72802734 C91.08044922 13.46923828 91.02759766 14.21044922 90.97314453 14.97412109 C89.78891218 18.50301449 88.1157214 19.98396752 85.19580078 22.29052734 C82.09548501 23.02176989 79.06912969 22.97434814 75.89501953 22.9375 C74.96597809 22.9462616 74.03693665 22.95502319 73.07974243 22.96405029 C70.01378449 22.98602747 66.94927296 22.97149718 63.88330078 22.95458984 C61.75007857 22.95795845 59.61685822 22.96281144 57.48364258 22.96908569 C53.01478791 22.97645477 48.54643323 22.96575001 44.07763672 22.94238281 C38.35066429 22.91389547 32.62486341 22.9302992 26.89793396 22.96024513 C22.49352193 22.97831689 18.08938745 22.97256053 13.68496704 22.95960617 C11.5734544 22.95627185 9.46191652 22.96036014 7.35043335 22.97200394 C4.3984711 22.98471026 1.44840324 22.96533801 -1.50341797 22.9375 C-2.81117691 22.95268173 -2.81117691 22.95268173 -4.14535522 22.96817017 C-8.54540231 22.8913355 -10.27051117 22.7134947 -13.83251953 19.89047241 C-16.70809844 16.09860538 -17.234043 12.98574405 -16.80419922 8.29052734 C-12.88999093 0.31714009 -8.29174456 -0.00898477 0 0 Z " fill="#000000" transform="translate(314.80419921875,169.70947265625)"/>
</svg>
